<?xml version="1.0" encoding="UTF-8" standalone="no"?>
<!-- Created with Inkscape (http://www.inkscape.org/) -->

<svg
   width="512mm"
   height="512mm"
   viewBox="0 0 512 512"
   version="1.1"
   id="svg1"
   inkscape:version="1.3.2 (091e20e, 2023-11-25, custom)"
   sodipodi:docname="nuidoai.svg"
   inkscape:export-filename="..\..\Odoo\18.0.node\custom\addons\nuidoai\static\description\icon.png"
   inkscape:export-xdpi="25.4"
   inkscape:export-ydpi="25.4"
   xmlns:inkscape="http://www.inkscape.org/namespaces/inkscape"
   xmlns:sodipodi="http://sodipodi.sourceforge.net/DTD/sodipodi-0.dtd"
   xmlns="http://www.w3.org/2000/svg"
   xmlns:svg="http://www.w3.org/2000/svg">
  <sodipodi:namedview
     id="namedview1"
     pagecolor="#505050"
     bordercolor="#eeeeee"
     borderopacity="1"
     inkscape:showpageshadow="0"
     inkscape:pageopacity="0"
     inkscape:pagecheckerboard="0"
     inkscape:deskcolor="#505050"
     inkscape:document-units="mm"
     inkscape:zoom="0.50835204"
     inkscape:cx="935.37541"
     inkscape:cy="639.32074"
     inkscape:window-width="3200"
     inkscape:window-height="1960"
     inkscape:window-x="-12"
     inkscape:window-y="-12"
     inkscape:window-maximized="1"
     inkscape:current-layer="layer1"
     showgrid="false" />
  <defs
     id="defs1" />
  <g
     inkscape:label="Layer 1"
     inkscape:groupmode="layer"
     id="layer1">
    <g
       id="g7"
       transform="translate(7.7429255,4.6425755)">
      <path
         style="fill:#bfc343;fill-opacity:1;fill-rule:evenodd;stroke:#7937d4;stroke-width:40;stroke-linecap:round;stroke-linejoin:round;stroke-miterlimit:3.2;stroke-dasharray:none;stroke-dashoffset:0;stroke-opacity:1;paint-order:normal"
         d="M 122.48527,332.26886 218.17301,178.43242"
         id="path7" />
      <path
         style="fill:#bfc343;fill-opacity:1;fill-rule:evenodd;stroke:#7937d4;stroke-width:40;stroke-linecap:round;stroke-linejoin:round;stroke-miterlimit:3.2;stroke-dasharray:none;stroke-dashoffset:0;stroke-opacity:1;paint-order:normal"
         d="M 248.25707,333.07027 V 181.074"
         id="path6" />
      <path
         style="fill:#bfc343;fill-opacity:1;fill-rule:evenodd;stroke:#7937d4;stroke-width:40;stroke-linecap:round;stroke-linejoin:round;stroke-miterlimit:3.2;stroke-dasharray:none;stroke-dashoffset:0;stroke-opacity:1;paint-order:normal"
         d="M 393.83049,331.60615 V 179.60988"
         id="path5" />
      <path
         style="fill:#bfc343;fill-opacity:1;fill-rule:evenodd;stroke:#7937d4;stroke-width:40;stroke-linecap:round;stroke-linejoin:round;stroke-miterlimit:3.2;stroke-dasharray:none;stroke-dashoffset:0;stroke-opacity:1;paint-order:normal"
         d="m 102.68365,317.55724 a 53.180298,53.180298 0 0 1 53.1803,53.18029 53.180298,53.180298 0 0 1 -53.1803,53.1803 53.180298,53.180298 0 0 1 -53.180301,-53.1803 53.180298,53.180298 0 0 1 53.180301,-53.18029 z"
         id="path4" />
      <path
         style="fill:#bfc343;fill-opacity:1;fill-rule:evenodd;stroke:#7937d4;stroke-width:40;stroke-linecap:round;stroke-linejoin:round;stroke-miterlimit:3.2;stroke-dasharray:none;stroke-dashoffset:0;stroke-opacity:1;paint-order:normal"
         d="m 393.83049,317.55724 a 53.180298,53.180298 0 0 1 53.1803,53.1803 53.180298,53.180298 0 0 1 -53.1803,53.18029 53.180298,53.180298 0 0 1 -53.1803,-53.18029 53.180298,53.180298 0 0 1 53.1803,-53.1803 z"
         id="path3" />
      <path
         style="fill:#bfc343;fill-opacity:1;fill-rule:evenodd;stroke:#7937d4;stroke-width:40;stroke-linecap:round;stroke-linejoin:round;stroke-miterlimit:3.2;stroke-dasharray:none;stroke-dashoffset:0;stroke-opacity:1;paint-order:normal"
         d="m 248.25708,78.797019 a 53.180298,53.180298 0 0 1 53.1803,53.180291 53.180298,53.180298 0 0 1 -53.1803,53.1803 53.180298,53.180298 0 0 1 -53.18032,-53.1803 53.180298,53.180298 0 0 1 53.18032,-53.180291 z"
         id="path2" />
      <path
         style="fill:#bfc343;fill-opacity:1;fill-rule:evenodd;stroke:#7937d4;stroke-width:40;stroke-linecap:round;stroke-linejoin:round;stroke-miterlimit:3.2;stroke-dasharray:none;stroke-dashoffset:0;stroke-opacity:1;paint-order:normal"
         d="m 393.8305,78.797019 a 53.180298,53.180298 0 0 1 53.1803,53.180291 53.180298,53.180298 0 0 1 -53.1803,53.1803 53.180298,53.180298 0 0 1 -53.18031,-53.1803 53.180298,53.180298 0 0 1 53.18031,-53.180291 z"
         id="path1" />
      <path
         style="fill:#bfc343;fill-opacity:1;fill-rule:evenodd;stroke:#7937d4;stroke-width:40;stroke-linecap:round;stroke-linejoin:round;stroke-miterlimit:3.2;stroke-dasharray:none;stroke-dashoffset:0;stroke-opacity:1;paint-order:normal"
         d="m 248.25707,317.55724 a 53.180298,53.180298 0 0 1 53.1803,53.1803 53.180298,53.180298 0 0 1 -53.1803,53.18029 53.180298,53.180298 0 0 1 -53.1803,-53.18029 53.180298,53.180298 0 0 1 53.1803,-53.1803 z"
         id="path1-3" />
    </g>
  </g>
</svg>
