<?xml version="1.0" encoding="UTF-8" standalone="no"?>
<!-- Created with Inkscape (http://www.inkscape.org/) -->

<svg
   width="512mm"
   height="512mm"
   viewBox="0 0 512 512"
   version="1.1"
   id="svg1"
   xmlns="http://www.w3.org/2000/svg"
   xmlns:svg="http://www.w3.org/2000/svg">
  <defs
     id="defs1" />
  <g
     id="layer1">
    <g
       id="g1"
       transform="matrix(0.76537434,0,0,0.76421894,59.313407,59.878527)"
       style="stroke-width:44.9738;stroke-dasharray:none">
      <path
         style="fill:#c0c343;fill-opacity:1;fill-rule:evenodd;stroke:#873fc0;stroke-width:44.9738;stroke-linecap:round;stroke-linejoin:round;stroke-miterlimit:3.2;stroke-dasharray:none;stroke-dashoffset:0;stroke-opacity:1;paint-order:normal"
         d="M 389.7435,331.22676 V 180.33457"
         id="path6" />
      <path
         style="fill:#c0c343;fill-opacity:1;fill-rule:evenodd;stroke:#873fc0;stroke-width:44.9738;stroke-linecap:round;stroke-linejoin:round;stroke-miterlimit:3.2;stroke-dasharray:none;stroke-dashoffset:0;stroke-opacity:1;paint-order:normal"
         d="m 119.60966,337.48327 0.73606,-159.72491"
         id="path5" />
      <path
         style="fill:#c0c343;fill-opacity:1;fill-rule:evenodd;stroke:#873fc0;stroke-width:44.9738;stroke-linecap:round;stroke-linejoin:round;stroke-miterlimit:3.2;stroke-dasharray:none;stroke-dashoffset:0;stroke-opacity:1;paint-order:normal"
         d="M 158.10035,162.97404 349.84383,351.03722"
         id="path4" />
      <path
         style="fill:#c0c343;fill-opacity:1;fill-rule:evenodd;stroke:#873fc0;stroke-width:44.9738;stroke-linecap:round;stroke-linejoin:round;stroke-miterlimit:3.2;stroke-dasharray:none;stroke-dashoffset:0;stroke-opacity:1;paint-order:normal"
         d="m 170.80111,126.41821 a 53.180298,53.180298 0 0 1 -53.1803,53.1803 53.180298,53.180298 0 0 1 -53.180296,-53.1803 53.180298,53.180298 0 0 1 53.180296,-53.180295 53.180298,53.180298 0 0 1 53.1803,53.180295 z"
         id="path3" />
      <path
         style="fill:#c0c343;fill-opacity:1;fill-rule:evenodd;stroke:#873fc0;stroke-width:44.9738;stroke-linecap:round;stroke-linejoin:round;stroke-miterlimit:3.2;stroke-dasharray:none;stroke-dashoffset:0;stroke-opacity:1;paint-order:normal"
         d="m 441.15985,381.49814 a 53.180298,53.180298 0 0 1 -53.1803,53.1803 53.180298,53.180298 0 0 1 -53.18029,-53.1803 53.180298,53.180298 0 0 1 53.18029,-53.1803 53.180298,53.180298 0 0 1 53.1803,53.1803 z"
         id="path2" />
      <path
         style="fill:#c0c343;fill-opacity:1;fill-rule:evenodd;stroke:#873fc0;stroke-width:44.9738;stroke-linecap:round;stroke-linejoin:round;stroke-miterlimit:3.2;stroke-dasharray:none;stroke-dashoffset:0;stroke-opacity:1;paint-order:normal"
         d="m 441.15985,126.41821 a 53.180298,53.180298 0 0 1 -53.1803,53.1803 53.180298,53.180298 0 0 1 -53.18029,-53.1803 53.180298,53.180298 0 0 1 53.18029,-53.180295 53.180298,53.180298 0 0 1 53.1803,53.180295 z"
         id="path1" />
      <path
         style="fill:#c0c343;fill-opacity:1;fill-rule:evenodd;stroke:#873fc0;stroke-width:44.9738;stroke-linecap:round;stroke-linejoin:round;stroke-miterlimit:3.2;stroke-dasharray:none;stroke-dashoffset:0;stroke-opacity:1;paint-order:normal"
         d="m 170.80111,381.49814 a 53.180298,53.180298 0 0 1 -53.1803,53.1803 53.180298,53.180298 0 0 1 -53.180296,-53.1803 53.180298,53.180298 0 0 1 53.180296,-53.1803 53.180298,53.180298 0 0 1 53.1803,53.1803 z"
         id="path1-3" />
    </g>
  </g>
</svg>
