<?xml version="1.0" encoding="UTF-8" standalone="no"?>
<!-- Created with Inkscape (http://www.inkscape.org/) -->

<svg
   width="416.7193mm"
   height="401.44052mm"
   viewBox="0 0 416.7193 401.44052"
   version="1.1"
   id="svg1"
   inkscape:version="1.3.2 (091e20e, 2023-11-25, custom)"
   sodipodi:docname="nuido.svg"
   inkscape:export-filename="..\Odoo\18.0.node\custom\addons\nuido\static\description\icon.png"
   inkscape:export-xdpi="96"
   inkscape:export-ydpi="96"
   xmlns:inkscape="http://www.inkscape.org/namespaces/inkscape"
   xmlns:sodipodi="http://sodipodi.sourceforge.net/DTD/sodipodi-0.dtd"
   xmlns="http://www.w3.org/2000/svg"
   xmlns:svg="http://www.w3.org/2000/svg">
  <sodipodi:namedview
     id="namedview1"
     pagecolor="#505050"
     bordercolor="#eeeeee"
     borderopacity="1"
     inkscape:showpageshadow="0"
     inkscape:pageopacity="0"
     inkscape:pagecheckerboard="0"
     inkscape:deskcolor="#505050"
     inkscape:document-units="mm"
     inkscape:zoom="0.35945917"
     inkscape:cx="702.44417"
     inkscape:cy="1271.3544"
     inkscape:window-width="3200"
     inkscape:window-height="1960"
     inkscape:window-x="-12"
     inkscape:window-y="-12"
     inkscape:window-maximized="1"
     inkscape:current-layer="layer1" />
  <defs
     id="defs1" />
  <g
     inkscape:label="Layer 1"
     inkscape:groupmode="layer"
     id="layer1"
     transform="translate(-44.440511,-53.237917)">
    <path
       style="fill:#c0c343;fill-opacity:1;fill-rule:evenodd;stroke:#873fc0;stroke-width:40;stroke-linecap:round;stroke-linejoin:round;stroke-miterlimit:3.2;stroke-dasharray:none;stroke-dashoffset:0;stroke-opacity:1;paint-order:normal"
       d="M 389.7435,331.22676 V 180.33457"
       id="path6"
       sodipodi:nodetypes="cc" />
    <path
       style="fill:#c0c343;fill-opacity:1;fill-rule:evenodd;stroke:#873fc0;stroke-width:40;stroke-linecap:round;stroke-linejoin:round;stroke-miterlimit:3.2;stroke-dasharray:none;stroke-dashoffset:0;stroke-opacity:1;paint-order:normal"
       d="m 119.60966,337.48327 0.73606,-159.72491"
       id="path5"
       sodipodi:nodetypes="cc" />
    <path
       style="fill:#c0c343;fill-opacity:1;fill-rule:evenodd;stroke:#873fc0;stroke-width:40;stroke-linecap:round;stroke-linejoin:round;stroke-miterlimit:3.2;stroke-dasharray:none;stroke-dashoffset:0;stroke-opacity:1;paint-order:normal"
       d="M 158.10035,162.97404 349.84383,351.03722"
       id="path4"
       sodipodi:nodetypes="cc" />
    <path
       style="fill:#c0c343;fill-opacity:1;fill-rule:evenodd;stroke:#873fc0;stroke-width:40;stroke-linecap:round;stroke-linejoin:round;stroke-miterlimit:3.2;stroke-dasharray:none;stroke-dashoffset:0;stroke-opacity:1;paint-order:normal"
       d="m 170.80111,126.41821 a 53.180298,53.180298 0 0 1 -53.1803,53.1803 53.180298,53.180298 0 0 1 -53.180296,-53.1803 53.180298,53.180298 0 0 1 53.180296,-53.180295 53.180298,53.180298 0 0 1 53.1803,53.180295 z"
       id="path3" />
    <path
       style="fill:#c0c343;fill-opacity:1;fill-rule:evenodd;stroke:#873fc0;stroke-width:40;stroke-linecap:round;stroke-linejoin:round;stroke-miterlimit:3.2;stroke-dasharray:none;stroke-dashoffset:0;stroke-opacity:1;paint-order:normal"
       d="m 441.15985,381.49814 a 53.180298,53.180298 0 0 1 -53.1803,53.1803 53.180298,53.180298 0 0 1 -53.18029,-53.1803 53.180298,53.180298 0 0 1 53.18029,-53.1803 53.180298,53.180298 0 0 1 53.1803,53.1803 z"
       id="path2" />
    <path
       style="fill:#c0c343;fill-opacity:1;fill-rule:evenodd;stroke:#873fc0;stroke-width:40;stroke-linecap:round;stroke-linejoin:round;stroke-miterlimit:3.2;stroke-dasharray:none;stroke-dashoffset:0;stroke-opacity:1;paint-order:normal"
       d="m 441.15985,126.41821 a 53.180298,53.180298 0 0 1 -53.1803,53.1803 53.180298,53.180298 0 0 1 -53.18029,-53.1803 53.180298,53.180298 0 0 1 53.18029,-53.180295 53.180298,53.180298 0 0 1 53.1803,53.180295 z"
       id="path1" />
    <path
       style="fill:#c0c343;fill-opacity:1;fill-rule:evenodd;stroke:#873fc0;stroke-width:40;stroke-linecap:round;stroke-linejoin:round;stroke-miterlimit:3.2;stroke-dasharray:none;stroke-dashoffset:0;stroke-opacity:1;paint-order:normal"
       d="m 170.80111,381.49814 a 53.180298,53.180298 0 0 1 -53.1803,53.1803 53.180298,53.180298 0 0 1 -53.180296,-53.1803 53.180298,53.180298 0 0 1 53.180296,-53.1803 53.180298,53.180298 0 0 1 53.1803,53.1803 z"
       id="path1-3" />
  </g>
</svg>
