<?xml version="1.0" encoding="UTF-8" standalone="no"?>
<!-- Created with Inkscape (http://www.inkscape.org/) -->

<svg
   width="512mm"
   height="512mm"
   viewBox="0 0 512 512"
   version="1.1"
   id="svg1"
   xmlns="http://www.w3.org/2000/svg"
   xmlns:svg="http://www.w3.org/2000/svg">
  <defs
     id="defs1" />
  <g
     id="layer1">
    <g
       id="g2"
       transform="translate(17.26279,-2.95055)"
       style="stroke-width:34.3958;stroke-dasharray:none">
      <path
         style="fill:#bfc343;fill-opacity:1;fill-rule:evenodd;stroke:#7937d4;stroke-width:34.3958;stroke-linecap:round;stroke-linejoin:round;stroke-miterlimit:3.2;stroke-dasharray:none;stroke-dashoffset:0;stroke-opacity:1;paint-order:normal"
         d="M 174.28717,256 H 326.28344"
         id="path6" />
      <path
         style="fill:#bfc343;fill-opacity:1;fill-rule:evenodd;stroke:#7937d4;stroke-width:34.3958;stroke-linecap:round;stroke-linejoin:round;stroke-miterlimit:3.2;stroke-dasharray:none;stroke-dashoffset:0;stroke-opacity:1;paint-order:normal"
         d="M 175.75129,110.42658 H 327.74756"
         id="path5" />
      <path
         style="fill:#bfc343;fill-opacity:1;fill-rule:evenodd;stroke:#7937d4;stroke-width:34.3958;stroke-linecap:round;stroke-linejoin:round;stroke-miterlimit:3.2;stroke-dasharray:none;stroke-dashoffset:0;stroke-opacity:1;paint-order:normal"
         d="m 189.8002,401.57342 a 53.180298,53.180298 0 0 0 -53.18029,-53.1803 53.180298,53.180298 0 0 0 -53.1803,53.1803 53.180298,53.180298 0 0 0 53.1803,53.1803 53.180298,53.180298 0 0 0 53.18029,-53.1803 z"
         id="path4" />
      <path
         style="fill:#bfc343;fill-opacity:1;fill-rule:evenodd;stroke:#7937d4;stroke-width:34.3958;stroke-linecap:round;stroke-linejoin:round;stroke-miterlimit:3.2;stroke-dasharray:none;stroke-dashoffset:0;stroke-opacity:1;paint-order:normal"
         d="m 189.8002,110.42658 a 53.180298,53.180298 0 0 0 -53.1803,-53.1803 53.180298,53.180298 0 0 0 -53.18029,53.1803 53.180298,53.180298 0 0 0 53.18029,53.1803 53.180298,53.180298 0 0 0 53.1803,-53.1803 z"
         id="path3" />
      <path
         style="fill:#bfc343;fill-opacity:1;fill-rule:evenodd;stroke:#7937d4;stroke-width:34.3958;stroke-linecap:round;stroke-linejoin:round;stroke-miterlimit:3.2;stroke-dasharray:none;stroke-dashoffset:0;stroke-opacity:1;paint-order:normal"
         d="m 357.16265,255.99999 a 53.180298,53.180298 0 0 0 -53.18029,-53.1803 53.180298,53.180298 0 0 0 -53.1803,53.1803 53.180298,53.180298 0 0 0 53.1803,53.18032 53.180298,53.180298 0 0 0 53.18029,-53.18032 z"
         id="path2" />
      <path
         style="fill:#bfc343;fill-opacity:1;fill-rule:evenodd;stroke:#7937d4;stroke-width:34.3958;stroke-linecap:round;stroke-linejoin:round;stroke-miterlimit:3.2;stroke-dasharray:none;stroke-dashoffset:0;stroke-opacity:1;paint-order:normal"
         d="m 357.16265,110.42657 a 53.180298,53.180298 0 0 0 -53.18029,-53.1803 53.180298,53.180298 0 0 0 -53.1803,53.1803 53.180298,53.180298 0 0 0 53.1803,53.18031 53.180298,53.180298 0 0 0 53.18029,-53.18031 z"
         id="path1" />
      <path
         style="fill:#bfc343;fill-opacity:1;fill-rule:evenodd;stroke:#7937d4;stroke-width:34.3958;stroke-linecap:round;stroke-linejoin:round;stroke-miterlimit:3.2;stroke-dasharray:none;stroke-dashoffset:0;stroke-opacity:1;paint-order:normal"
         d="M 189.8002,256 A 53.180298,53.180298 0 0 0 136.6199,202.8197 53.180298,53.180298 0 0 0 83.43961,256 53.180298,53.180298 0 0 0 136.6199,309.1803 53.180298,53.180298 0 0 0 189.8002,256 Z"
         id="path1-3" />
    </g>
    <g
       id="g1">
      <path
         style="font-size:286.571px;line-height:1.25;font-family:'Gochi Hand';-inkscape-font-specification:'Gochi Hand, Normal';fill:#0089f4;stroke-width:0.264583"
         d="m 278.96721,420.97429 q 0,-2.7768 0.65336,-6.20695 0.65336,-3.43015 0.65336,-7.51367 0,-2.7768 -2.45011,-4.24686 -2.28677,-1.47007 -5.2269,-3.26682 -2.94013,-1.79674 -5.39024,-4.57353 -2.28677,-2.77679 -2.28677,-8.00369 0,-3.75684 1.96008,-7.51368 2.12344,-3.75684 6.04361,-6.8603 9.6371,-7.18699 19.92757,-12.90392 10.4538,-5.71692 20.74426,-9.63709 10.4538,-3.92019 20.58092,-6.04361 10.12713,-2.12344 19.43755,-2.12344 15.6807,0 29.40132,5.88027 13.88396,5.71693 24.01108,15.84405 10.29046,9.96378 16.17073,23.52105 6.0436,13.39394 6.0436,28.74797 0,15.02734 -6.37029,28.58462 -6.20693,13.39393 -16.82409,23.52105 -10.61714,10.12712 -24.99112,16.00738 -14.21064,6.04361 -30.05468,6.04361 -15.51737,0 -28.74797,-5.2269 -13.23058,-5.2269 -22.86768,-14.37398 -9.63711,-9.31041 -15.02735,-21.88765 -5.39024,-12.74058 -5.39024,-27.76791 z m 75.62673,39.85513 q 6.86031,0 14.21064,-2.7768 7.35034,-2.77679 13.39394,-8.00369 6.20694,-5.39024 10.12712,-13.06726 4.08352,-7.67701 4.08352,-17.31411 0,-9.80044 -3.5935,-18.29415 -3.59349,-8.49372 -9.96379,-14.70067 -6.20693,-6.37028 -14.864,-9.96378 -8.4937,-3.5935 -18.45749,-3.5935 -18.13081,0 -27.76792,9.47376 -9.6371,9.31043 -9.6371,28.74797 0,10.61714 3.10348,19.76422 3.26682,8.98374 8.98374,15.6807 5.71691,6.53363 13.39394,10.29047 7.84034,3.75684 16.98742,3.75684 z"
         id="text1"
         aria-label="o" />
    </g>
  </g>
</svg>
